<mxfile host="app.diagrams.net" agent="Mozilla/5.0 (Windows NT 10.0; Win64; x64) AppleWebKit/537.36 (KHTML, like Gecko) Chrome/130.0.0.0 Safari/537.36" version="24.8.3">
  <diagram id="R2lEEEUBdFMjLlhIrx00" name="Page-1">
    <mxGraphModel dx="1323" dy="762" grid="1" gridSize="10" guides="1" tooltips="1" connect="1" arrows="1" fold="1" page="1" pageScale="1" pageWidth="850" pageHeight="1100" math="0" shadow="0" extFonts="Permanent Marker^https://fonts.googleapis.com/css?family=Permanent+Marker">
      <root>
        <mxCell id="0" />
        <mxCell id="1" parent="0" />
        <mxCell id="Hi5l68Q3AN8a3Jo4IFvr-1" value="Ward" style="whiteSpace=wrap;html=1;align=center;" vertex="1" parent="1">
          <mxGeometry x="140" y="170" width="100" height="40" as="geometry" />
        </mxCell>
        <mxCell id="Hi5l68Q3AN8a3Jo4IFvr-2" value="Patient" style="whiteSpace=wrap;html=1;align=center;" vertex="1" parent="1">
          <mxGeometry x="540" y="170" width="100" height="40" as="geometry" />
        </mxCell>
        <mxCell id="Hi5l68Q3AN8a3Jo4IFvr-3" value="Consultant" style="whiteSpace=wrap;html=1;align=center;" vertex="1" parent="1">
          <mxGeometry x="543" y="360" width="100" height="40" as="geometry" />
        </mxCell>
        <mxCell id="Hi5l68Q3AN8a3Jo4IFvr-4" value="Nurse" style="whiteSpace=wrap;html=1;align=center;" vertex="1" parent="1">
          <mxGeometry x="143" y="361" width="100" height="40" as="geometry" />
        </mxCell>
        <mxCell id="Hi5l68Q3AN8a3Jo4IFvr-5" value="Drug" style="whiteSpace=wrap;html=1;align=center;" vertex="1" parent="1">
          <mxGeometry x="150" y="481" width="100" height="40" as="geometry" />
        </mxCell>
        <mxCell id="Hi5l68Q3AN8a3Jo4IFvr-6" value="&lt;font style=&quot;font-size: 9px;&quot;&gt;Ward_Id&lt;/font&gt;" style="ellipse;whiteSpace=wrap;html=1;align=center;fontStyle=4;" vertex="1" parent="1">
          <mxGeometry x="60" y="120" width="70" height="20" as="geometry" />
        </mxCell>
        <mxCell id="Hi5l68Q3AN8a3Jo4IFvr-7" value="&lt;font style=&quot;font-size: 9px;&quot;&gt;Name&lt;/font&gt;" style="ellipse;whiteSpace=wrap;html=1;align=center;" vertex="1" parent="1">
          <mxGeometry x="170" y="120" width="70" height="20" as="geometry" />
        </mxCell>
        <mxCell id="Hi5l68Q3AN8a3Jo4IFvr-16" value="&lt;font style=&quot;font-size: 9px;&quot;&gt;Patient_Id&lt;/font&gt;" style="ellipse;whiteSpace=wrap;html=1;align=center;fontStyle=4;" vertex="1" parent="1">
          <mxGeometry x="520" y="110" width="70" height="20" as="geometry" />
        </mxCell>
        <mxCell id="Hi5l68Q3AN8a3Jo4IFvr-17" value="&lt;font style=&quot;font-size: 9px;&quot;&gt;Name&lt;/font&gt;" style="ellipse;whiteSpace=wrap;html=1;align=center;" vertex="1" parent="1">
          <mxGeometry x="630" y="110" width="70" height="20" as="geometry" />
        </mxCell>
        <mxCell id="Hi5l68Q3AN8a3Jo4IFvr-18" value="&lt;font style=&quot;font-size: 9px;&quot;&gt;Nurse_Number&lt;/font&gt;" style="ellipse;whiteSpace=wrap;html=1;align=center;fontStyle=4;" vertex="1" parent="1">
          <mxGeometry x="84" y="323" width="70" height="20" as="geometry" />
        </mxCell>
        <mxCell id="Hi5l68Q3AN8a3Jo4IFvr-19" value="&lt;font style=&quot;font-size: 9px;&quot;&gt;Nurse_Name&lt;/font&gt;" style="ellipse;whiteSpace=wrap;html=1;align=center;" vertex="1" parent="1">
          <mxGeometry x="211" y="321" width="60" height="20" as="geometry" />
        </mxCell>
        <mxCell id="Hi5l68Q3AN8a3Jo4IFvr-20" value="&lt;font style=&quot;font-size: 9px;&quot;&gt;Consultant_Id&lt;/font&gt;" style="ellipse;whiteSpace=wrap;html=1;align=center;fontStyle=4;" vertex="1" parent="1">
          <mxGeometry x="700" y="330" width="70" height="20" as="geometry" />
        </mxCell>
        <mxCell id="Hi5l68Q3AN8a3Jo4IFvr-21" value="&lt;font style=&quot;font-size: 9px;&quot;&gt;Name&lt;/font&gt;" style="ellipse;whiteSpace=wrap;html=1;align=center;" vertex="1" parent="1">
          <mxGeometry x="621" y="330" width="70" height="20" as="geometry" />
        </mxCell>
        <mxCell id="Hi5l68Q3AN8a3Jo4IFvr-22" value="&lt;font style=&quot;font-size: 9px;&quot;&gt;Drug_Code&lt;/font&gt;" style="ellipse;whiteSpace=wrap;html=1;align=center;fontStyle=4;" vertex="1" parent="1">
          <mxGeometry x="40" y="451" width="70" height="20" as="geometry" />
        </mxCell>
        <mxCell id="Hi5l68Q3AN8a3Jo4IFvr-23" value="&lt;font style=&quot;font-size: 9px;&quot;&gt;Recommended_Dosage&lt;/font&gt;" style="ellipse;whiteSpace=wrap;html=1;align=center;" vertex="1" parent="1">
          <mxGeometry x="70" y="426" width="110" height="20" as="geometry" />
        </mxCell>
        <mxCell id="Hi5l68Q3AN8a3Jo4IFvr-25" value="&lt;font style=&quot;font-size: 9px;&quot;&gt;Date_Of_Birth&lt;/font&gt;" style="ellipse;whiteSpace=wrap;html=1;align=center;" vertex="1" parent="1">
          <mxGeometry x="660" y="140" width="70" height="20" as="geometry" />
        </mxCell>
        <mxCell id="Hi5l68Q3AN8a3Jo4IFvr-26" value="&lt;font style=&quot;font-size: 9px;&quot;&gt;Nurse_Address&lt;/font&gt;" style="ellipse;whiteSpace=wrap;html=1;align=center;" vertex="1" parent="1">
          <mxGeometry x="281" y="321" width="70" height="20" as="geometry" />
        </mxCell>
        <mxCell id="Hi5l68Q3AN8a3Jo4IFvr-28" value="&lt;font style=&quot;font-size: 9px;&quot;&gt;Brand_Name&lt;/font&gt;" style="ellipse;shape=doubleEllipse;margin=3;whiteSpace=wrap;html=1;align=center;" vertex="1" parent="1">
          <mxGeometry x="20" y="481" width="80" height="30" as="geometry" />
        </mxCell>
        <mxCell id="Hi5l68Q3AN8a3Jo4IFvr-29" value="" style="endArrow=none;html=1;rounded=0;exitX=0.5;exitY=1;exitDx=0;exitDy=0;entryX=0.25;entryY=0;entryDx=0;entryDy=0;" edge="1" parent="1" source="Hi5l68Q3AN8a3Jo4IFvr-6" target="Hi5l68Q3AN8a3Jo4IFvr-1">
          <mxGeometry relative="1" as="geometry">
            <mxPoint x="45" y="160" as="sourcePoint" />
            <mxPoint x="205" y="160" as="targetPoint" />
          </mxGeometry>
        </mxCell>
        <mxCell id="Hi5l68Q3AN8a3Jo4IFvr-30" value="" style="endArrow=none;html=1;rounded=0;exitX=0.5;exitY=1;exitDx=0;exitDy=0;entryX=0.75;entryY=0;entryDx=0;entryDy=0;" edge="1" parent="1" source="Hi5l68Q3AN8a3Jo4IFvr-7" target="Hi5l68Q3AN8a3Jo4IFvr-1">
          <mxGeometry relative="1" as="geometry">
            <mxPoint x="200" y="130" as="sourcePoint" />
            <mxPoint x="270" y="170" as="targetPoint" />
          </mxGeometry>
        </mxCell>
        <mxCell id="Hi5l68Q3AN8a3Jo4IFvr-31" value="" style="endArrow=none;html=1;rounded=0;exitX=0.5;exitY=1;exitDx=0;exitDy=0;entryX=0.25;entryY=0;entryDx=0;entryDy=0;" edge="1" parent="1" source="Hi5l68Q3AN8a3Jo4IFvr-16" target="Hi5l68Q3AN8a3Jo4IFvr-2">
          <mxGeometry relative="1" as="geometry">
            <mxPoint x="560" y="140" as="sourcePoint" />
            <mxPoint x="570" y="180" as="targetPoint" />
          </mxGeometry>
        </mxCell>
        <mxCell id="Hi5l68Q3AN8a3Jo4IFvr-32" value="" style="endArrow=none;html=1;rounded=0;exitX=0.5;exitY=1;exitDx=0;exitDy=0;entryX=0.5;entryY=0;entryDx=0;entryDy=0;" edge="1" parent="1" source="Hi5l68Q3AN8a3Jo4IFvr-17" target="Hi5l68Q3AN8a3Jo4IFvr-2">
          <mxGeometry relative="1" as="geometry">
            <mxPoint x="565" y="140" as="sourcePoint" />
            <mxPoint x="575" y="180" as="targetPoint" />
          </mxGeometry>
        </mxCell>
        <mxCell id="Hi5l68Q3AN8a3Jo4IFvr-34" value="" style="endArrow=none;html=1;rounded=0;exitX=0.5;exitY=1;exitDx=0;exitDy=0;entryX=0.75;entryY=0;entryDx=0;entryDy=0;" edge="1" parent="1" source="Hi5l68Q3AN8a3Jo4IFvr-25" target="Hi5l68Q3AN8a3Jo4IFvr-2">
          <mxGeometry relative="1" as="geometry">
            <mxPoint x="675" y="140" as="sourcePoint" />
            <mxPoint x="600" y="180" as="targetPoint" />
          </mxGeometry>
        </mxCell>
        <mxCell id="Hi5l68Q3AN8a3Jo4IFvr-35" value="" style="endArrow=none;html=1;rounded=0;entryX=1;entryY=0;entryDx=0;entryDy=0;exitX=0.5;exitY=1;exitDx=0;exitDy=0;" edge="1" parent="1" source="Hi5l68Q3AN8a3Jo4IFvr-20" target="Hi5l68Q3AN8a3Jo4IFvr-3">
          <mxGeometry relative="1" as="geometry">
            <mxPoint x="533" y="360" as="sourcePoint" />
            <mxPoint x="573" y="410" as="targetPoint" />
          </mxGeometry>
        </mxCell>
        <mxCell id="Hi5l68Q3AN8a3Jo4IFvr-36" value="" style="endArrow=none;html=1;rounded=0;entryX=0.5;entryY=0;entryDx=0;entryDy=0;exitX=0.5;exitY=1;exitDx=0;exitDy=0;" edge="1" parent="1" source="Hi5l68Q3AN8a3Jo4IFvr-21" target="Hi5l68Q3AN8a3Jo4IFvr-3">
          <mxGeometry relative="1" as="geometry">
            <mxPoint x="538" y="360" as="sourcePoint" />
            <mxPoint x="578" y="370" as="targetPoint" />
          </mxGeometry>
        </mxCell>
        <mxCell id="Hi5l68Q3AN8a3Jo4IFvr-37" value="" style="endArrow=none;html=1;rounded=0;exitX=0.5;exitY=1;exitDx=0;exitDy=0;entryX=0.25;entryY=0;entryDx=0;entryDy=0;" edge="1" parent="1" source="Hi5l68Q3AN8a3Jo4IFvr-18" target="Hi5l68Q3AN8a3Jo4IFvr-4">
          <mxGeometry relative="1" as="geometry">
            <mxPoint x="93" y="281" as="sourcePoint" />
            <mxPoint x="253" y="281" as="targetPoint" />
          </mxGeometry>
        </mxCell>
        <mxCell id="Hi5l68Q3AN8a3Jo4IFvr-38" value="" style="endArrow=none;html=1;rounded=0;exitX=0.5;exitY=1;exitDx=0;exitDy=0;entryX=0.5;entryY=0;entryDx=0;entryDy=0;" edge="1" parent="1" source="Hi5l68Q3AN8a3Jo4IFvr-19" target="Hi5l68Q3AN8a3Jo4IFvr-4">
          <mxGeometry relative="1" as="geometry">
            <mxPoint x="168" y="351" as="sourcePoint" />
            <mxPoint x="178" y="371" as="targetPoint" />
          </mxGeometry>
        </mxCell>
        <mxCell id="Hi5l68Q3AN8a3Jo4IFvr-39" value="" style="endArrow=none;html=1;rounded=0;exitX=0.5;exitY=1;exitDx=0;exitDy=0;entryX=0.75;entryY=0;entryDx=0;entryDy=0;" edge="1" parent="1" source="Hi5l68Q3AN8a3Jo4IFvr-26" target="Hi5l68Q3AN8a3Jo4IFvr-4">
          <mxGeometry relative="1" as="geometry">
            <mxPoint x="248" y="341" as="sourcePoint" />
            <mxPoint x="203" y="371" as="targetPoint" />
          </mxGeometry>
        </mxCell>
        <mxCell id="Hi5l68Q3AN8a3Jo4IFvr-40" value="" style="endArrow=none;html=1;rounded=0;exitX=0.5;exitY=1;exitDx=0;exitDy=0;entryX=0;entryY=0.25;entryDx=0;entryDy=0;" edge="1" parent="1" source="Hi5l68Q3AN8a3Jo4IFvr-22" target="Hi5l68Q3AN8a3Jo4IFvr-5">
          <mxGeometry relative="1" as="geometry">
            <mxPoint x="140" y="461" as="sourcePoint" />
            <mxPoint x="300" y="461" as="targetPoint" />
          </mxGeometry>
        </mxCell>
        <mxCell id="Hi5l68Q3AN8a3Jo4IFvr-41" value="" style="endArrow=none;html=1;rounded=0;exitX=0.5;exitY=1;exitDx=0;exitDy=0;entryX=0;entryY=0;entryDx=0;entryDy=0;" edge="1" parent="1" source="Hi5l68Q3AN8a3Jo4IFvr-23" target="Hi5l68Q3AN8a3Jo4IFvr-5">
          <mxGeometry relative="1" as="geometry">
            <mxPoint x="145" y="481" as="sourcePoint" />
            <mxPoint x="185" y="491" as="targetPoint" />
          </mxGeometry>
        </mxCell>
        <mxCell id="Hi5l68Q3AN8a3Jo4IFvr-42" value="" style="endArrow=none;html=1;rounded=0;exitX=0.5;exitY=1;exitDx=0;exitDy=0;entryX=0;entryY=0.5;entryDx=0;entryDy=0;" edge="1" parent="1" source="Hi5l68Q3AN8a3Jo4IFvr-28" target="Hi5l68Q3AN8a3Jo4IFvr-5">
          <mxGeometry relative="1" as="geometry">
            <mxPoint x="245" y="481" as="sourcePoint" />
            <mxPoint x="210" y="491" as="targetPoint" />
          </mxGeometry>
        </mxCell>
        <mxCell id="Hi5l68Q3AN8a3Jo4IFvr-43" value="host" style="shape=rhombus;perimeter=rhombusPerimeter;whiteSpace=wrap;html=1;align=center;" vertex="1" parent="1">
          <mxGeometry x="370" y="165" width="60" height="50" as="geometry" />
        </mxCell>
        <mxCell id="Hi5l68Q3AN8a3Jo4IFvr-44" value="" style="endArrow=none;html=1;rounded=0;exitX=1;exitY=0.5;exitDx=0;exitDy=0;entryX=0;entryY=0.5;entryDx=0;entryDy=0;" edge="1" parent="1" source="Hi5l68Q3AN8a3Jo4IFvr-1" target="Hi5l68Q3AN8a3Jo4IFvr-43">
          <mxGeometry relative="1" as="geometry">
            <mxPoint x="250" y="215" as="sourcePoint" />
            <mxPoint x="410" y="215" as="targetPoint" />
          </mxGeometry>
        </mxCell>
        <mxCell id="Hi5l68Q3AN8a3Jo4IFvr-45" value="" style="endArrow=none;html=1;rounded=0;exitX=1;exitY=0.5;exitDx=0;exitDy=0;entryX=0;entryY=0.5;entryDx=0;entryDy=0;" edge="1" parent="1" source="Hi5l68Q3AN8a3Jo4IFvr-43" target="Hi5l68Q3AN8a3Jo4IFvr-2">
          <mxGeometry relative="1" as="geometry">
            <mxPoint x="390" y="220" as="sourcePoint" />
            <mxPoint x="520" y="220" as="targetPoint" />
          </mxGeometry>
        </mxCell>
        <mxCell id="Hi5l68Q3AN8a3Jo4IFvr-46" value="" style="endArrow=none;html=1;rounded=0;entryX=0;entryY=0.75;entryDx=0;entryDy=0;" edge="1" parent="1">
          <mxGeometry relative="1" as="geometry">
            <mxPoint x="420" y="198" as="sourcePoint" />
            <mxPoint x="540" y="198" as="targetPoint" />
          </mxGeometry>
        </mxCell>
        <mxCell id="Hi5l68Q3AN8a3Jo4IFvr-55" value="1" style="text;strokeColor=none;fillColor=none;spacingLeft=4;spacingRight=4;overflow=hidden;rotatable=0;points=[[0,0.5],[1,0.5]];portConstraint=eastwest;fontSize=12;whiteSpace=wrap;html=1;" vertex="1" parent="1">
          <mxGeometry x="239" y="167" width="40" height="30" as="geometry" />
        </mxCell>
        <mxCell id="Hi5l68Q3AN8a3Jo4IFvr-56" value="M" style="text;strokeColor=none;fillColor=none;spacingLeft=4;spacingRight=4;overflow=hidden;rotatable=0;points=[[0,0.5],[1,0.5]];portConstraint=eastwest;fontSize=12;whiteSpace=wrap;html=1;" vertex="1" parent="1">
          <mxGeometry x="518" y="169" width="40" height="30" as="geometry" />
        </mxCell>
        <mxCell id="Hi5l68Q3AN8a3Jo4IFvr-57" value="assigned" style="shape=rhombus;perimeter=rhombusPerimeter;whiteSpace=wrap;html=1;align=center;" vertex="1" parent="1">
          <mxGeometry x="508" y="250" width="60" height="50" as="geometry" />
        </mxCell>
        <mxCell id="Hi5l68Q3AN8a3Jo4IFvr-58" value="examined" style="shape=rhombus;perimeter=rhombusPerimeter;whiteSpace=wrap;html=1;align=center;" vertex="1" parent="1">
          <mxGeometry x="608" y="240" width="62" height="60" as="geometry" />
        </mxCell>
        <mxCell id="Hi5l68Q3AN8a3Jo4IFvr-64" value="" style="endArrow=none;html=1;rounded=0;exitX=0.25;exitY=1;exitDx=0;exitDy=0;entryX=0.5;entryY=0;entryDx=0;entryDy=0;" edge="1" parent="1" source="Hi5l68Q3AN8a3Jo4IFvr-2" target="Hi5l68Q3AN8a3Jo4IFvr-57">
          <mxGeometry relative="1" as="geometry">
            <mxPoint x="483" y="248.57" as="sourcePoint" />
            <mxPoint x="643" y="248.57" as="targetPoint" />
          </mxGeometry>
        </mxCell>
        <mxCell id="Hi5l68Q3AN8a3Jo4IFvr-65" value="M" style="resizable=0;html=1;whiteSpace=wrap;align=right;verticalAlign=bottom;" connectable="0" vertex="1" parent="Hi5l68Q3AN8a3Jo4IFvr-64">
          <mxGeometry x="1" relative="1" as="geometry">
            <mxPoint x="35" y="-20" as="offset" />
          </mxGeometry>
        </mxCell>
        <mxCell id="Hi5l68Q3AN8a3Jo4IFvr-67" value="" style="endArrow=none;html=1;rounded=0;exitX=0.5;exitY=1;exitDx=0;exitDy=0;entryX=0.25;entryY=0;entryDx=0;entryDy=0;" edge="1" parent="1" source="Hi5l68Q3AN8a3Jo4IFvr-57" target="Hi5l68Q3AN8a3Jo4IFvr-3">
          <mxGeometry relative="1" as="geometry">
            <mxPoint x="575" y="220" as="sourcePoint" />
            <mxPoint x="548" y="260" as="targetPoint" />
          </mxGeometry>
        </mxCell>
        <mxCell id="Hi5l68Q3AN8a3Jo4IFvr-68" value="1" style="resizable=0;html=1;whiteSpace=wrap;align=right;verticalAlign=bottom;" connectable="0" vertex="1" parent="Hi5l68Q3AN8a3Jo4IFvr-67">
          <mxGeometry x="1" relative="1" as="geometry">
            <mxPoint x="7" as="offset" />
          </mxGeometry>
        </mxCell>
        <mxCell id="Hi5l68Q3AN8a3Jo4IFvr-69" value="" style="endArrow=none;html=1;rounded=0;exitX=0.5;exitY=1;exitDx=0;exitDy=0;entryX=0.5;entryY=0;entryDx=0;entryDy=0;" edge="1" parent="1" source="Hi5l68Q3AN8a3Jo4IFvr-58" target="Hi5l68Q3AN8a3Jo4IFvr-3">
          <mxGeometry relative="1" as="geometry">
            <mxPoint x="590" y="290" as="sourcePoint" />
            <mxPoint x="620" y="350" as="targetPoint" />
          </mxGeometry>
        </mxCell>
        <mxCell id="Hi5l68Q3AN8a3Jo4IFvr-70" value="M" style="resizable=0;html=1;whiteSpace=wrap;align=right;verticalAlign=bottom;" connectable="0" vertex="1" parent="Hi5l68Q3AN8a3Jo4IFvr-69">
          <mxGeometry x="1" relative="1" as="geometry">
            <mxPoint x="4" as="offset" />
          </mxGeometry>
        </mxCell>
        <mxCell id="Hi5l68Q3AN8a3Jo4IFvr-71" value="" style="endArrow=none;html=1;rounded=0;exitX=0.75;exitY=1;exitDx=0;exitDy=0;entryX=0.5;entryY=0;entryDx=0;entryDy=0;" edge="1" parent="1" source="Hi5l68Q3AN8a3Jo4IFvr-2" target="Hi5l68Q3AN8a3Jo4IFvr-58">
          <mxGeometry relative="1" as="geometry">
            <mxPoint x="653" y="230" as="sourcePoint" />
            <mxPoint x="608" y="290" as="targetPoint" />
          </mxGeometry>
        </mxCell>
        <mxCell id="Hi5l68Q3AN8a3Jo4IFvr-72" value="M" style="resizable=0;html=1;whiteSpace=wrap;align=right;verticalAlign=bottom;" connectable="0" vertex="1" parent="Hi5l68Q3AN8a3Jo4IFvr-71">
          <mxGeometry x="1" relative="1" as="geometry">
            <mxPoint x="-20" y="-10" as="offset" />
          </mxGeometry>
        </mxCell>
        <mxCell id="Hi5l68Q3AN8a3Jo4IFvr-73" value="" style="endArrow=none;html=1;rounded=0;entryX=0.384;entryY=0.095;entryDx=0;entryDy=0;exitX=0.212;exitY=0.989;exitDx=0;exitDy=0;exitPerimeter=0;entryPerimeter=0;" edge="1" parent="1" source="Hi5l68Q3AN8a3Jo4IFvr-2" target="Hi5l68Q3AN8a3Jo4IFvr-57">
          <mxGeometry relative="1" as="geometry">
            <mxPoint x="380" y="310" as="sourcePoint" />
            <mxPoint x="540" y="310" as="targetPoint" />
          </mxGeometry>
        </mxCell>
        <mxCell id="Hi5l68Q3AN8a3Jo4IFvr-75" value="takes" style="shape=rhombus;perimeter=rhombusPerimeter;whiteSpace=wrap;html=1;align=center;" vertex="1" parent="1">
          <mxGeometry x="372.5" y="370" width="55" height="45" as="geometry" />
        </mxCell>
        <mxCell id="Hi5l68Q3AN8a3Jo4IFvr-76" value="" style="endArrow=none;html=1;rounded=0;exitX=0;exitY=1;exitDx=0;exitDy=0;entryX=0.5;entryY=0;entryDx=0;entryDy=0;" edge="1" parent="1" source="Hi5l68Q3AN8a3Jo4IFvr-2" target="Hi5l68Q3AN8a3Jo4IFvr-75">
          <mxGeometry relative="1" as="geometry">
            <mxPoint x="300" y="360" as="sourcePoint" />
            <mxPoint x="460" y="360" as="targetPoint" />
          </mxGeometry>
        </mxCell>
        <mxCell id="Hi5l68Q3AN8a3Jo4IFvr-77" value="" style="endArrow=none;html=1;rounded=0;exitX=0.5;exitY=1;exitDx=0;exitDy=0;entryX=1;entryY=0.5;entryDx=0;entryDy=0;" edge="1" parent="1" source="Hi5l68Q3AN8a3Jo4IFvr-75" target="Hi5l68Q3AN8a3Jo4IFvr-5">
          <mxGeometry relative="1" as="geometry">
            <mxPoint x="445" y="430" as="sourcePoint" />
            <mxPoint x="330" y="615" as="targetPoint" />
          </mxGeometry>
        </mxCell>
        <mxCell id="Hi5l68Q3AN8a3Jo4IFvr-78" value="&lt;font style=&quot;font-size: 9px;&quot;&gt;dosage&lt;/font&gt;" style="ellipse;whiteSpace=wrap;html=1;align=center;" vertex="1" parent="1">
          <mxGeometry x="440" y="415" width="47" height="15" as="geometry" />
        </mxCell>
        <mxCell id="Hi5l68Q3AN8a3Jo4IFvr-79" value="" style="endArrow=none;html=1;rounded=0;exitX=1;exitY=1;exitDx=0;exitDy=0;entryX=0;entryY=0.5;entryDx=0;entryDy=0;" edge="1" parent="1" source="Hi5l68Q3AN8a3Jo4IFvr-75" target="Hi5l68Q3AN8a3Jo4IFvr-78">
          <mxGeometry relative="1" as="geometry">
            <mxPoint x="408" y="489.40999999999997" as="sourcePoint" />
            <mxPoint x="568" y="489.40999999999997" as="targetPoint" />
          </mxGeometry>
        </mxCell>
        <mxCell id="Hi5l68Q3AN8a3Jo4IFvr-80" value="&lt;font style=&quot;font-size: 9px;&quot;&gt;Date_Time&lt;/font&gt;" style="ellipse;whiteSpace=wrap;html=1;align=center;" vertex="1" parent="1">
          <mxGeometry x="441" y="355" width="56" height="26" as="geometry" />
        </mxCell>
        <mxCell id="Hi5l68Q3AN8a3Jo4IFvr-81" value="" style="endArrow=none;html=1;rounded=0;exitX=1;exitY=0;exitDx=0;exitDy=0;entryX=0;entryY=0.5;entryDx=0;entryDy=0;" edge="1" parent="1" target="Hi5l68Q3AN8a3Jo4IFvr-80" source="Hi5l68Q3AN8a3Jo4IFvr-75">
          <mxGeometry relative="1" as="geometry">
            <mxPoint x="455.9999999999998" y="401" as="sourcePoint" />
            <mxPoint x="612" y="420.40999999999997" as="targetPoint" />
          </mxGeometry>
        </mxCell>
        <mxCell id="Hi5l68Q3AN8a3Jo4IFvr-84" value="M" style="text;strokeColor=none;fillColor=none;spacingLeft=4;spacingRight=4;overflow=hidden;rotatable=0;points=[[0,0.5],[1,0.5]];portConstraint=eastwest;fontSize=12;whiteSpace=wrap;html=1;" vertex="1" parent="1">
          <mxGeometry x="246" y="461" width="40" height="30" as="geometry" />
        </mxCell>
        <mxCell id="Hi5l68Q3AN8a3Jo4IFvr-85" value="1" style="text;strokeColor=none;fillColor=none;spacingLeft=4;spacingRight=4;overflow=hidden;rotatable=0;points=[[0,0.5],[1,0.5]];portConstraint=eastwest;fontSize=12;whiteSpace=wrap;html=1;" vertex="1" parent="1">
          <mxGeometry x="519" y="198" width="40" height="30" as="geometry" />
        </mxCell>
        <mxCell id="Hi5l68Q3AN8a3Jo4IFvr-86" value="" style="endArrow=none;html=1;rounded=0;exitX=0.5;exitY=1;exitDx=0;exitDy=0;entryX=0.993;entryY=0.334;entryDx=0;entryDy=0;entryPerimeter=0;" edge="1" parent="1" target="Hi5l68Q3AN8a3Jo4IFvr-5">
          <mxGeometry relative="1" as="geometry">
            <mxPoint x="396" y="411" as="sourcePoint" />
            <mxPoint x="239" y="526" as="targetPoint" />
          </mxGeometry>
        </mxCell>
        <mxCell id="Hi5l68Q3AN8a3Jo4IFvr-87" value="supervised" style="shape=rhombus;perimeter=rhombusPerimeter;whiteSpace=wrap;html=1;align=center;" vertex="1" parent="1">
          <mxGeometry x="186" y="250" width="70" height="50" as="geometry" />
        </mxCell>
        <mxCell id="Hi5l68Q3AN8a3Jo4IFvr-88" value="" style="endArrow=none;html=1;rounded=0;exitX=0.5;exitY=1;exitDx=0;exitDy=0;entryX=0.5;entryY=0;entryDx=0;entryDy=0;" edge="1" parent="1" source="Hi5l68Q3AN8a3Jo4IFvr-87" target="Hi5l68Q3AN8a3Jo4IFvr-4">
          <mxGeometry relative="1" as="geometry">
            <mxPoint x="110" y="310" as="sourcePoint" />
            <mxPoint x="270" y="310" as="targetPoint" />
          </mxGeometry>
        </mxCell>
        <mxCell id="Hi5l68Q3AN8a3Jo4IFvr-89" value="1" style="resizable=0;html=1;whiteSpace=wrap;align=right;verticalAlign=bottom;" connectable="0" vertex="1" parent="Hi5l68Q3AN8a3Jo4IFvr-88">
          <mxGeometry x="1" relative="1" as="geometry">
            <mxPoint x="-12" y="4" as="offset" />
          </mxGeometry>
        </mxCell>
        <mxCell id="Hi5l68Q3AN8a3Jo4IFvr-90" value="" style="endArrow=none;html=1;rounded=0;exitX=0.5;exitY=1;exitDx=0;exitDy=0;entryX=0.5;entryY=0;entryDx=0;entryDy=0;" edge="1" parent="1" source="Hi5l68Q3AN8a3Jo4IFvr-1" target="Hi5l68Q3AN8a3Jo4IFvr-87">
          <mxGeometry relative="1" as="geometry">
            <mxPoint x="287" y="240" as="sourcePoint" />
            <mxPoint x="286" y="301" as="targetPoint" />
          </mxGeometry>
        </mxCell>
        <mxCell id="Hi5l68Q3AN8a3Jo4IFvr-91" value="1" style="resizable=0;html=1;whiteSpace=wrap;align=right;verticalAlign=bottom;" connectable="0" vertex="1" parent="Hi5l68Q3AN8a3Jo4IFvr-90">
          <mxGeometry x="1" relative="1" as="geometry">
            <mxPoint x="-11" y="-24" as="offset" />
          </mxGeometry>
        </mxCell>
        <mxCell id="Hi5l68Q3AN8a3Jo4IFvr-94" value="" style="endArrow=none;html=1;rounded=0;exitX=0.5;exitY=1;exitDx=0;exitDy=0;entryX=0.614;entryY=0.092;entryDx=0;entryDy=0;entryPerimeter=0;" edge="1" parent="1" target="Hi5l68Q3AN8a3Jo4IFvr-87">
          <mxGeometry relative="1" as="geometry">
            <mxPoint x="195" y="209.6" as="sourcePoint" />
            <mxPoint x="227.05" y="253.99999999999997" as="targetPoint" />
          </mxGeometry>
        </mxCell>
        <mxCell id="Hi5l68Q3AN8a3Jo4IFvr-96" value="serve" style="shape=rhombus;perimeter=rhombusPerimeter;whiteSpace=wrap;html=1;align=center;" vertex="1" parent="1">
          <mxGeometry x="100" y="250" width="70" height="50" as="geometry" />
        </mxCell>
        <mxCell id="Hi5l68Q3AN8a3Jo4IFvr-97" value="" style="endArrow=none;html=1;rounded=0;exitX=0.5;exitY=1;exitDx=0;exitDy=0;entryX=0.5;entryY=0;entryDx=0;entryDy=0;" edge="1" parent="1" source="Hi5l68Q3AN8a3Jo4IFvr-96" target="Hi5l68Q3AN8a3Jo4IFvr-4">
          <mxGeometry relative="1" as="geometry">
            <mxPoint x="110" y="310" as="sourcePoint" />
            <mxPoint x="270" y="310" as="targetPoint" />
          </mxGeometry>
        </mxCell>
        <mxCell id="Hi5l68Q3AN8a3Jo4IFvr-98" value="1" style="resizable=0;html=1;whiteSpace=wrap;align=right;verticalAlign=bottom;" connectable="0" vertex="1" parent="Hi5l68Q3AN8a3Jo4IFvr-97">
          <mxGeometry x="1" relative="1" as="geometry">
            <mxPoint x="6" y="-3" as="offset" />
          </mxGeometry>
        </mxCell>
        <mxCell id="Hi5l68Q3AN8a3Jo4IFvr-99" value="" style="endArrow=none;html=1;rounded=0;exitX=0.299;exitY=0.808;exitDx=0;exitDy=0;exitPerimeter=0;" edge="1" parent="1" source="Hi5l68Q3AN8a3Jo4IFvr-96">
          <mxGeometry relative="1" as="geometry">
            <mxPoint x="127.07" y="296.35" as="sourcePoint" />
            <mxPoint x="189" y="361" as="targetPoint" />
          </mxGeometry>
        </mxCell>
        <mxCell id="Hi5l68Q3AN8a3Jo4IFvr-101" value="" style="endArrow=none;html=1;rounded=0;exitX=0.442;exitY=1.001;exitDx=0;exitDy=0;entryX=0.5;entryY=0;entryDx=0;entryDy=0;exitPerimeter=0;" edge="1" parent="1" source="Hi5l68Q3AN8a3Jo4IFvr-1" target="Hi5l68Q3AN8a3Jo4IFvr-96">
          <mxGeometry relative="1" as="geometry">
            <mxPoint x="112" y="199" as="sourcePoint" />
            <mxPoint x="84" y="260" as="targetPoint" />
          </mxGeometry>
        </mxCell>
        <mxCell id="Hi5l68Q3AN8a3Jo4IFvr-102" value="1" style="resizable=0;html=1;whiteSpace=wrap;align=right;verticalAlign=bottom;" connectable="0" vertex="1" parent="Hi5l68Q3AN8a3Jo4IFvr-101">
          <mxGeometry x="1" relative="1" as="geometry">
            <mxPoint x="42" y="-24" as="offset" />
          </mxGeometry>
        </mxCell>
        <mxCell id="Hi5l68Q3AN8a3Jo4IFvr-103" value="" style="endArrow=none;html=1;rounded=0;entryX=0.553;entryY=0.043;entryDx=0;entryDy=0;entryPerimeter=0;exitX=0.5;exitY=1;exitDx=0;exitDy=0;" edge="1" parent="1" source="Hi5l68Q3AN8a3Jo4IFvr-1" target="Hi5l68Q3AN8a3Jo4IFvr-96">
          <mxGeometry relative="1" as="geometry">
            <mxPoint x="190" y="220" as="sourcePoint" />
            <mxPoint x="130" y="260.6" as="targetPoint" />
          </mxGeometry>
        </mxCell>
      </root>
    </mxGraphModel>
  </diagram>
</mxfile>
